<?xml version="1.0" standalone="no"?>
<!DOCTYPE svg PUBLIC "-//W3C//DTD SVG 20010904//EN"
 "http://www.w3.org/TR/2001/REC-SVG-20010904/DTD/svg10.dtd">
<svg version="1.0" xmlns="http://www.w3.org/2000/svg"
 width="48.000000pt" height="48.000000pt" viewBox="0 0 48.000000 48.000000"
 preserveAspectRatio="xMidYMid meet">

<g transform="translate(0.000000,48.000000) scale(0.100000,-0.100000)"
fill="#000000" stroke="none">
<path d="M249 343 c-61 -59 -86 -90 -79 -97 7 -7 29 8 68 47 l58 57 24 -25
c21 -23 23 -28 11 -47 -8 -12 -9 -24 -3 -30 12 -12 102 86 102 112 0 27 -43
70 -71 70 -14 0 -54 -32 -110 -87z m141 42 c15 -18 10 -45 -12 -59 -13 -8 -22
-5 -43 14 -23 22 -24 25 -8 42 19 22 46 23 63 3z"/>
<path d="M230 175 l-64 -65 -28 27 -27 26 20 26 c26 33 6 41 -26 11 -24 -23
-55 -124 -42 -137 4 -3 31 -1 60 6 46 10 63 21 125 84 63 63 77 87 53 87 -4 0
-36 -29 -71 -65z m-104 -74 c-9 -13 -36 -15 -36 -2 0 5 3 17 6 26 6 15 8 15
22 2 8 -8 11 -20 8 -26z"/>
</g>
</svg>
